<?xml version="1.0" standalone="no"?>
<!DOCTYPE svg PUBLIC "-//W3C//DTD SVG 20010904//EN"
 "http://www.w3.org/TR/2001/REC-SVG-20010904/DTD/svg10.dtd">
<svg version="1.0" xmlns="http://www.w3.org/2000/svg"
 width="960.000000pt" height="960.000000pt" viewBox="0 0 960.000000 960.000000"
 preserveAspectRatio="xMidYMid meet">
<metadata>
Created by potrace 1.11, written by Peter Selinger 2001-2013
</metadata>
<g transform="translate(0.000000,960.000000) scale(0.100000,-0.100000)"
fill="#000000" stroke="none">
<path d="M0 7195 l0 -2405 926 -2 925 -3 0 -177 c0 -98 -1 -181 -1 -185 0 -5
-83 -7 -185 -5 l-185 3 0 -186 0 -185 -185 0 -186 0 3 185 3 185 -557 0 -558
0 0 -555 0 -555 168 -1 c92 -1 174 -2 182 -3 13 -1 15 -28 15 -181 l0 -180
-182 -3 -183 -2 0 -185 0 -185 1295 0 1295 0 0 -185 0 -185 -370 0 -370 0 0
-185 0 -185 -925 0 -925 0 0 -915 0 -915 4800 0 4800 0 0 175 0 175 -360 0
-360 0 0 1110 0 1110 -557 0 -558 0 3 555 2 555 -186 0 -185 0 3 182 3 183
367 3 367 3 -2 -371 -2 -370 188 0 187 0 1 163 c1 89 5 245 8 347 l7 185 2
-162 2 -163 175 0 175 0 0 160 0 160 -162 2 -163 2 165 6 165 5 -165 6 -165 5
163 2 c108 1 162 6 162 13 0 7 -57 10 -185 7 l-185 -3 0 558 0 557 545 0 545
0 0 185 0 185 -918 0 -917 0 3 136 c2 74 1 151 -3 170 l-6 35 -162 -1 c-89 0
-166 0 -172 1 -5 1 -14 1 -19 0 -5 -1 -4 5 4 13 10 13 41 16 181 16 128 0 169
-3 169 -12 0 -8 3 -7 8 2 4 8 6 98 4 200 l-3 185 -184 -3 -185 -3 0 -184 0
-185 -185 0 -185 0 0 -159 c0 -118 -3 -161 -12 -164 -10 -4 -10 -6 0 -6 6 -1
12 -10 12 -21 0 -19 7 -20 362 -20 199 0 365 -3 370 -8 5 -5 7 -87 6 -183 l-3
-174 -183 0 -182 0 0 -190 0 -190 -182 0 -183 0 0 -180 0 -180 183 0 182 0 0
-187 0 -188 -185 0 -185 0 0 -185 0 -185 -185 0 -185 0 0 -370 0 -370 -185 0
-185 0 0 -1110 0 -1110 -740 0 -740 0 0 185 0 185 -185 0 -185 0 0 185 0 185
-185 0 -185 0 0 185 0 185 -185 0 -185 0 0 370 0 370 -185 0 -185 0 0 185 0
185 185 0 185 0 0 740 0 740 -185 0 -185 0 0 555 0 555 185 0 185 0 0 185 0
185 185 0 185 0 0 740 0 740 1295 0 1295 0 0 370 0 370 -370 0 -370 0 0 185 0
185 -370 0 -370 0 0 -185 0 -185 -370 0 -370 0 0 555 0 555 -185 0 -185 0 0
185 0 185 -1665 0 -1665 0 0 -190 0 -189 -180 2 -180 2 -3 -175 c-1 -96 -4
-12 -5 188 l-2 362 -185 0 -185 0 0 -2405z m733 1684 c-5 -5 -6 69 -3 164 l5
172 3 -164 c1 -91 -1 -168 -5 -172z m30 -19 l347 0 0 -185 0 -186 -185 3 -185
3 0 -362 c0 -199 2 -367 5 -375 4 -10 68 -12 338 -10 182 1 347 0 364 -3 33
-6 40 -25 13 -37 -13 -6 -12 -7 2 -7 14 -1 16 -19 17 -161 1 -114 -1 -160 -10
-160 -6 0 -8 7 -5 16 4 10 2 14 -6 11 -7 -2 -12 -8 -11 -13 0 -5 -158 -11
-353 -13 l-354 -3 0 188 0 189 -185 -3 -185 -3 0 562 0 561 23 -6 c12 -3 178
-6 370 -6z m2938 -147 c0 -82 1 -165 2 -186 l2 -37 -187 0 -188 0 0 185 0 185
185 0 185 0 1 -147z m-2221 -1888 l0 -185 -185 0 -185 0 0 185 0 185 185 0
185 0 0 -185z m5960 -1241 c0 -2 -7 -4 -15 -4 -8 0 -15 4 -15 10 0 5 7 7 15 4
8 -4 15 -8 15 -10z m-10 -28 c0 -3 -4 -8 -10 -11 -5 -3 -10 -1 -10 4 0 6 5 11
10 11 6 0 10 -2 10 -4z m710 -766 l0 -370 -185 0 -185 0 0 370 0 370 185 0
185 0 0 -370z m-5550 -185 l0 -185 -187 2 c-133 2 -187 6 -186 14 1 7 3 86 3
177 1 116 5 167 13 171 7 2 90 5 185 5 l172 1 0 -185z m4807 129 c-3 -3 -12
-4 -19 -1 -8 3 -5 6 6 6 11 1 17 -2 13 -5z m-7038 -506 c-1 -225 -16 -211 -20
17 l-3 160 -6 -165 -6 -165 -2 161 c-1 88 1 164 5 167 3 4 12 7 20 7 10 0 13
-37 12 -182z m8191 -208 c0 -5 -4 -10 -10 -10 -5 0 -10 5 -10 10 0 6 5 10 10
10 6 0 10 -4 10 -10z m-1113 -1446 c-3 -3 -12 -4 -19 -1 -8 3 -5 6 6 6 11 1
17 -2 13 -5z"/>
<path d="M1281 7720 c-122 -4 -165 -8 -167 -18 -1 -7 0 -8 3 -2 3 6 64 10 161
10 87 0 164 5 172 10 8 5 11 9 5 8 -5 -1 -84 -5 -174 -8z"/>
<path d="M1448 7682 c9 -6 12 -39 10 -126 l-3 -118 -170 0 c-197 -1 -177 -6
37 -10 l146 -3 -1 129 c-2 105 -5 130 -17 133 -11 4 -12 2 -2 -5z"/>
<path d="M4810 9415 l0 -185 370 0 370 0 0 -185 0 -185 738 -2 737 -3 3 -182
2 -183 555 0 555 0 0 185 0 185 -555 0 -555 0 -2 186 -3 186 -182 -2 -183 -1
0 186 0 185 -925 0 -925 0 0 -185z"/>
<path d="M7400 9415 l0 -185 185 0 185 0 0 185 0 185 -185 0 -185 0 0 -185z"/>
<path d="M8140 9415 l0 -185 370 0 c362 0 370 0 370 20 0 18 8 20 163 23 l162
3 -162 2 -163 2 0 160 0 160 -370 0 -370 0 0 -185z"/>
<path d="M9236 9264 c-4 -9 -4 -19 -1 -22 2 -3 7 3 11 12 4 9 4 19 1 22 -2 3
-7 -3 -11 -12z"/>
<path d="M9256 9214 c-3 -9 -6 -92 -6 -185 l0 -169 175 0 175 0 0 185 0 185
-169 0 c-145 0 -170 -2 -175 -16z"/>
<path d="M8510 8673 l0 -188 185 3 185 3 0 -179 0 -179 -242 -6 c-133 -4 -466
-7 -740 -7 l-498 0 0 -185 0 -185 371 0 372 0 -8 -362 c-4 -200 -9 -365 -12
-368 -2 -3 -68 -5 -145 -5 -106 0 -142 3 -144 13 -1 7 0 8 3 2 6 -13 243 -14
243 0 0 5 7 7 15 4 22 -9 24 6 27 184 2 89 2 158 0 153 -2 -7 -12 -7 -28 0
-39 14 -301 12 -307 -3 -4 -10 -6 -10 -6 0 -1 9 -46 12 -191 12 l-190 0 0
-370 0 -370 925 0 925 0 0 185 0 185 -370 0 -370 0 2 186 3 186 183 -2 182 -1
0 371 0 371 183 -1 182 -2 0 184 0 183 -182 3 -183 2 0 185 0 185 -185 0 -185
0 0 -187z m-712 -1644 c-7 -4 -15 -5 -18 -2 -3 3 1 8 8 10 9 3 13 48 14 166
l2 162 3 -164 c3 -123 0 -166 -9 -172z m309 89 c-1 -46 -3 -9 -3 82 0 91 2
128 3 83 2 -46 2 -120 0 -165z"/>
<path d="M9247 7568 l2 -183 176 -3 175 -2 0 185 0 185 -177 0 -178 0 2 -182z"/>
<path d="M7960 6260 l-125 -6 120 -1 c66 -1 129 2 140 7 11 5 13 8 5 7 -8 0
-71 -4 -140 -7z"/>
<path d="M8129 6256 c9 -10 12 -67 10 -188 -1 -124 2 -173 10 -172 6 1 90 2
186 3 l175 1 0 185 0 185 -196 0 c-169 0 -195 -2 -185 -14z"/>
<path d="M8880 6085 l0 -185 360 0 360 0 0 185 0 185 -360 0 -360 0 0 -185z"/>
<path d="M5180 5715 l0 -185 -185 0 -185 0 0 -185 0 -185 555 0 555 0 0 185 0
185 370 0 c254 0 370 3 370 11 0 5 -4 8 -8 5 -5 -3 -9 2 -9 10 0 8 6 13 14 10
7 -3 13 -1 13 4 0 6 -8 10 -17 11 -11 0 -13 3 -5 6 9 3 12 45 12 159 l0 154
-740 0 -740 0 0 -185z"/>
<path d="M7000 5539 c0 -5 5 -7 10 -4 6 3 10 8 10 11 0 2 -4 4 -10 4 -5 0 -10
-5 -10 -11z"/>
<path d="M8880 4605 l0 -185 360 0 360 0 0 185 0 185 -360 0 -360 0 0 -185z"/>
<path d="M9257 4043 c-11 -10 -8 -363 2 -363 7 0 12 63 14 168 l3 167 2 -167
2 -168 160 0 160 0 0 185 0 186 -169 -1 c-93 -1 -172 -4 -174 -7z"/>
<path d="M9257 3303 c-4 -3 -7 -87 -7 -185 l0 -178 175 0 175 0 0 185 0 185
-168 0 c-93 0 -172 -3 -175 -7z"/>
<path d="M9257 1453 c-4 -3 -7 -170 -7 -370 l0 -363 175 0 175 0 0 370 0 370
-168 0 c-93 0 -172 -3 -175 -7z"/>
</g>
</svg>
